HIERARCHY
ROOT Hips
{
	OFFSET -3.958830 18.904000 13.208200
	CHANNELS 6 Xposition Yposition Zposition Zrotation Yrotation Xrotation 
	JOINT LHipJoint
	{
		OFFSET 0.000000 0.000000 0.000000
		CHANNELS 3 Zrotation Yrotation Xrotation
		JOINT LeftUpLeg
		{
			OFFSET 1.800000 -1.400000 0.085000
			CHANNELS 3 Zrotation Yrotation Xrotation
			JOINT LeftLeg
			{
				OFFSET 2.215000 -6.000000 0.000000
				CHANNELS 3 Zrotation Yrotation Xrotation
				JOINT LeftFoot
				{
					OFFSET 2.500000 -6.900000 0.000000
					CHANNELS 3 Zrotation Yrotation Xrotation
					JOINT LeftToeBase
					{
						OFFSET 0.200000 -0.500000 1.950000
						CHANNELS 3 Zrotation Yrotation Xrotation
						End Site
						{
							OFFSET 0.000000 0.000000 0.000000
						}
					}
				}
			}
		}
	}
	JOINT RHipJoint
	{
		OFFSET 0.000000 0.000000 0.000000
		CHANNELS 3 Zrotation Yrotation Xrotation
		JOINT RightUpLeg
		{
			OFFSET -1.800000 -1.400000 0.085000
			CHANNELS 3 Zrotation Yrotation Xrotation
			JOINT RightLeg
			{
				OFFSET -2.215000 -6.000000 0.000000
				CHANNELS 3 Zrotation Yrotation Xrotation
				JOINT RightFoot
				{
					OFFSET -2.500000 -6.900000 0.000000
					CHANNELS 3 Zrotation Yrotation Xrotation
					JOINT RightToeBase
					{
						OFFSET -0.200000 -0.500000 1.950000
						CHANNELS 3 Zrotation Yrotation Xrotation
						End Site
						{
							OFFSET 0.000000 0.000000 0.000000
						}
					}
				}
			}
		}
	}
	JOINT LowerBack
	{
		OFFSET 0.000000 0.000000 0.000000
		CHANNELS 3 Zrotation Yrotation Xrotation
		JOINT Spine
		{
			OFFSET -0.087000 1.940000 -0.288900
			CHANNELS 3 Zrotation Yrotation Xrotation
			JOINT Spine1
			{
				OFFSET 0.000000 1.950000 0.060000
				CHANNELS 3 Zrotation Yrotation Xrotation
				JOINT Neck
				{
					OFFSET 0.000000 0.000000 0.000000
					CHANNELS 3 Zrotation Yrotation Xrotation
					JOINT Neck1
					{
						OFFSET 0.000000 1.600000 0.340000
						CHANNELS 3 Zrotation Yrotation Xrotation
						JOINT Head
						{
							OFFSET 0.000000 1.667000 -0.240000
							CHANNELS 3 Zrotation Yrotation Xrotation
							End Site
							{
								OFFSET 0.000000 0.000000 0.000000
							}
						}
					}
				}
				JOINT LeftShoulder
				{
					OFFSET 0.000000 0.000000 0.000000
					CHANNELS 3 Zrotation Yrotation Xrotation
					JOINT LeftArm
					{
						OFFSET 2.700000 1.550000 -0.730000
						CHANNELS 3 Zrotation Yrotation Xrotation
						JOINT LeftForeArm
						{
							OFFSET 5.450000 0.000000 0.000000
							CHANNELS 3 Zrotation Yrotation Xrotation
							JOINT LeftHand
							{
								OFFSET 3.450000 0.000000 0.000000
								CHANNELS 3 Zrotation Yrotation Xrotation
								JOINT LeftHandIndex1
								{
									OFFSET 0.750000 0.000000 0.000000
									CHANNELS 3 Zrotation Yrotation Xrotation
									End Site
									{
										OFFSET 0.000000 0.000000 0.000000
									}
								}
							}
						}
					}
				}
				JOINT RightShoulder
				{
					OFFSET 0.000000 0.000000 0.000000
					CHANNELS 3 Zrotation Yrotation Xrotation
					JOINT RightArm
					{
						OFFSET -2.700000 1.550000 -0.730000
						CHANNELS 3 Zrotation Yrotation Xrotation
						JOINT RightForeArm
						{
							OFFSET -5.450000 0.000000 0.000000
							CHANNELS 3 Zrotation Yrotation Xrotation
							JOINT RightHand
							{
								OFFSET -3.450000 0.000000 0.000000
								CHANNELS 3 Zrotation Yrotation Xrotation
								JOINT RightHandIndex1
								{
									OFFSET -0.750000 0.000000 0.000000
									CHANNELS 3 Zrotation Yrotation Xrotation
									End Site
									{
										OFFSET 0.000000 0.000000 0.000000
									}
								}
							}
						}
					}
				}
			}
		}
	}
}
MOTION
Frames: 13
Frame Time: 0.016667
0.001480 15.685770 -0.858620 -3.355603 -2.043047 -4.587334 -15.303710 10.528247 5.121042 20.261316 -5.420819 -27.394817 -33.147217 31.277606 48.408012 1.909260 13.744321 -0.031519 0.294570 0.310250 0.083860 18.437544 -8.629130 3.757597 -18.959590 7.565957 -23.648464 36.764033 -28.843956 46.454717 -2.097138 -11.183237 0.528166 0.212910 0.176260 0.120260 -3.691599 -1.308736 -9.751021 9.544590 -0.337642 17.881026 -3.233996 2.400220 18.195624 2.584335 -3.535594 -19.882184 -8.651431 2.962884 39.503336 1.540190 -0.516750 -9.807130 -21.744091 -36.135402 10.508027 -36.954230 -8.122761 -7.229622 -26.878652 -22.581781 0.701692 -3.537455 3.031396 0.304670 0.020490 0.094260 0.114720 17.611972 41.239917 16.136931 38.965663 6.140449 -10.119536 20.518204 26.802866 0.195808 2.029079 -1.337197 -0.065050 0.311840 0.075960 -0.019430 
0.001370 15.666500 -0.856340 -3.312886 -2.283410 -4.638883 -15.312630 10.518696 5.137080 20.418705 -5.322596 -27.399599 -33.410112 31.586496 48.482994 1.921296 13.797675 -0.047896 0.293350 0.308060 0.084490 18.432337 -8.597768 3.772817 -19.042379 7.701301 -23.819937 36.703659 -29.055864 46.908155 -2.116002 -11.256547 0.509032 0.212290 0.173470 0.117460 -3.673096 -1.335186 -9.773383 9.447783 -0.272390 17.957345 -3.133225 2.447826 18.133880 2.569765 -3.605461 -19.953106 -8.818802 3.127399 39.692092 1.539380 -0.388250 -9.838360 -21.826403 -36.122458 10.505828 -36.987828 -7.996368 -7.282774 -26.867510 -22.618753 0.688754 -3.534486 3.026797 0.311440 0.018060 0.095190 0.111700 17.751640 41.292263 16.162513 38.789905 6.099462 -10.039498 20.563946 26.565666 0.199937 2.027984 -1.329786 -0.068790 0.313120 0.078380 -0.023460 
-0.000090 15.630100 -0.856180 -3.278222 -2.596780 -4.625227 -15.329544 10.463184 5.190676 20.781842 -5.220512 -27.737909 -33.925659 32.241306 48.775357 1.965802 13.926763 -0.080041 0.293420 0.305110 0.086130 18.428063 -8.528241 3.804477 -19.216369 7.893355 -24.236348 36.909396 -29.507244 47.465727 -2.150565 -11.382231 0.478178 0.206940 0.169920 0.122270 -3.646962 -1.352803 -9.825162 9.310831 -0.159844 18.033505 -2.977304 2.525988 18.068688 2.568166 -3.658888 -20.085611 -8.933420 3.208194 39.813277 1.362990 -0.265610 -9.685570 -22.010212 -36.166244 10.520637 -36.952852 -7.730767 -7.462854 -26.991861 -22.834180 0.704853 -3.531517 3.035670 0.310570 0.019600 0.095650 0.110460 17.976994 41.423038 16.231089 38.571009 5.905919 -10.054522 20.591650 26.451614 0.194324 2.023290 -1.333375 -0.063730 0.304740 0.078320 -0.025380 
0.002160 15.591300 -0.857100 -3.285072 -2.888553 -4.694240 -15.340312 10.424082 5.244658 21.101908 -5.138096 -28.041047 -34.277533 32.900862 49.249699 2.001537 14.071885 -0.121223 0.288060 0.293120 0.089080 18.426116 -8.459435 3.840430 -19.394633 8.103380 -24.656767 37.014994 -29.979416 48.139421 -2.186496 -11.514994 0.441703 0.199520 0.161830 0.123980 -3.632803 -1.393546 -9.887128 9.386682 -0.179833 18.264863 -2.995022 2.567420 17.950529 2.665112 -3.807559 -20.326330 -9.313784 3.385495 40.174280 1.090250 -0.137040 -9.625460 -22.470179 -36.221736 10.559409 -36.717146 -7.206157 -7.767148 -27.276703 -23.251176 0.753946 -3.518959 3.038392 0.320930 0.016240 0.098570 0.102800 18.284477 41.646720 16.332736 38.226167 5.648075 -10.141749 20.765238 26.424676 0.220601 2.015873 -1.328868 -0.066400 0.299140 0.083600 -0.033270 
0.003310 15.556700 -0.857510 -3.244391 -3.178742 -4.729349 -15.349716 10.389988 5.286930 21.332686 -5.048474 -28.290466 -34.565457 33.495958 49.659507 2.048547 14.194417 -0.145382 0.280320 0.281160 0.087360 18.424067 -8.395853 3.883051 -19.604102 8.311434 -25.129648 37.109908 -30.437620 48.817126 -2.221545 -11.647186 0.408628 0.189660 0.160460 0.122840 -3.620008 -1.427530 -9.947856 9.385041 -0.163345 18.443867 -3.047053 2.657613 17.831077 2.732512 -3.899332 -20.593808 -9.595671 3.546521 40.555164 0.968380 -0.042090 -9.294220 -22.998850 -36.326946 10.614871 -36.276078 -6.639532 -8.049253 -27.735810 -23.604639 0.833372 -3.503457 3.045537 0.321800 0.014470 0.098740 0.102430 18.713025 41.868692 16.447487 37.868741 5.347588 -10.213546 20.935239 26.400074 0.244943 2.013746 -1.329718 -0.066980 0.295760 0.083740 -0.034040 
0.004250 15.527100 -0.858440 -3.235652 -3.378848 -4.674460 -15.356247 10.347682 5.329085 21.515485 -5.004570 -28.654187 -34.809193 34.001876 50.023992 2.096421 14.296003 -0.163717 0.269250 0.269500 0.079370 18.426823 -8.333648 3.922398 -19.767916 8.471260 -25.631998 37.268835 -30.871458 49.355467 -2.247373 -11.765312 0.379917 0.178520 0.161320 0.120280 -3.618230 -1.452990 -9.999732 9.443152 -0.182418 18.535007 -3.099141 2.703780 17.647640 2.760575 -3.986355 -20.770899 -9.841114 3.650528 40.713799 0.904710 -0.010130 -8.806800 -23.438373 -36.352076 10.649811 -35.943366 -6.178317 -8.245290 -28.069215 -23.849035 0.907621 -3.493163 3.060102 0.311790 0.015860 0.092490 0.100720 19.113455 41.962608 16.512982 37.549044 5.063624 -10.256866 21.132119 26.384036 0.271575 2.017662 -1.336811 -0.063520 0.286750 0.084440 -0.030540 
0.004100 15.505720 -0.860490 -3.244527 -3.588493 -4.700457 -15.364347 10.325459 5.360184 21.650913 -4.966648 -28.909168 -34.893990 34.365623 50.385036 2.126776 14.368132 -0.188709 0.275490 0.276760 0.079940 18.424052 -8.283627 3.956432 -19.845112 8.638104 -26.010663 37.365188 -31.208156 49.830339 -2.278299 -11.864072 0.349464 0.176000 0.146230 0.129120 -3.605381 -1.486469 -10.045103 9.463169 -0.192739 18.747832 -3.081172 2.738350 17.506378 2.808546 -4.095675 -20.944302 -10.118788 3.745718 40.922457 0.796130 0.021750 -8.765740 -23.855284 -36.342700 10.645559 -35.592927 -5.787214 -8.417679 -28.357795 -24.039310 0.959507 -3.475892 3.085793 0.311110 0.009270 0.100260 0.099190 19.467460 42.075019 16.569993 37.110592 4.853637 -10.270221 21.470255 26.267869 0.304135 2.017345 -1.348419 -0.049210 0.266850 0.081150 -0.029470 
0.002360 15.493080 -0.864290 -3.286548 -3.783153 -4.808511 -15.369112 10.325050 5.380732 21.777561 -4.921445 -29.019164 -34.892487 34.568729 50.633076 2.127988 14.409886 -0.209330 0.287020 0.286570 0.087180 18.420437 -8.250787 3.978103 -19.778780 8.808115 -26.213625 37.320809 -31.396413 50.247608 -2.305836 -11.928895 0.332459 0.179440 0.132690 0.130040 -3.595311 -1.527558 -10.079162 9.487718 -0.270092 19.066028 -3.150793 2.760001 17.411559 2.860378 -4.191833 -21.141904 -10.376482 3.980895 41.244209 0.871700 0.144760 -9.073550 -24.110093 -36.396190 10.680902 -35.236549 -5.333933 -8.625626 -28.617099 -24.280122 0.985172 -3.453697 3.092325 0.327330 -0.001770 0.110050 0.098270 19.645239 42.247177 16.595028 36.751047 4.903076 -10.160968 21.669303 25.914512 0.315823 2.012149 -1.341666 -0.047230 0.263450 0.079150 -0.035720 
0.001510 15.486520 -0.866750 -3.346212 -3.848208 -4.895818 -15.371918 10.331094 5.394176 21.837798 -4.940180 -29.098032 -34.840718 34.620762 50.799741 2.118956 14.431319 -0.222848 0.306580 0.298930 0.099660 18.417962 -8.233715 3.982316 -19.590776 8.904480 -26.292707 37.156049 -31.463757 50.565419 -2.328705 -11.967296 0.320689 0.185940 0.120290 0.135970 -3.588369 -1.564754 -10.093409 9.504743 -0.387985 19.319108 -3.202368 2.716180 17.358613 2.882582 -4.290676 -21.251605 -10.604699 4.126618 41.336867 0.993620 0.164540 -9.465030 -24.147209 -36.419986 10.695832 -35.097202 -5.080998 -8.776948 -28.804608 -24.442283 0.981512 -3.433744 3.102392 0.346940 -0.013200 0.120470 0.102320 19.655118 42.353247 16.612292 36.527149 4.935049 -10.107973 21.733190 25.718274 0.317889 2.004683 -1.342460 -0.045130 0.258870 0.073220 -0.042720 
0.002850 15.486200 -0.868630 -3.400730 -3.897779 -4.955824 -15.368990 10.345258 5.397001 21.780316 -4.964472 -29.128676 -34.668797 34.556476 50.935722 2.116046 14.437658 -0.224097 0.320940 0.304790 0.111990 18.417460 -8.237896 3.983371 -19.402559 8.983206 -26.306810 36.891670 -31.413145 50.804358 -2.340018 -11.983247 0.322629 0.185770 0.114700 0.143960 -3.591538 -1.578584 -10.102923 9.647123 -0.466948 19.502218 -3.273138 2.704898 17.391286 2.958559 -4.351271 -21.406661 -10.772331 4.108587 41.474563 0.861330 0.097840 -9.602230 -24.297050 -36.531300 10.717642 -34.875474 -4.911592 -8.871380 -29.010658 -24.531526 0.993382 -3.421762 3.107402 0.356350 -0.015690 0.126620 0.107770 19.669141 42.545987 16.681734 36.301794 4.880845 -10.100753 21.790002 25.618615 0.315293 1.994287 -1.344614 -0.039820 0.255190 0.066010 -0.046740 
0.002540 15.490380 -0.867720 -3.374798 -3.983542 -4.992277 -15.366591 10.373689 5.387876 21.647661 -4.944728 -29.036237 -34.535911 34.450549 50.917218 2.123756 14.412071 -0.213746 0.320280 0.306850 0.105350 18.413338 -8.250816 3.984479 -19.296306 9.042800 -26.266168 36.658308 -31.266416 50.896693 -2.337272 -11.968670 0.332725 0.180200 0.115770 0.143910 -3.587969 -1.597873 -10.109227 9.645536 -0.469262 19.644231 -3.273636 2.755566 17.320355 2.939760 -4.437870 -21.583954 -11.014763 4.143469 41.686879 1.046130 -0.033240 -9.548470 -24.390387 -36.618976 10.762774 -34.800045 -4.729337 -8.966037 -29.160808 -24.695595 1.037706 -3.410776 3.111823 0.354280 -0.018590 0.129230 0.112460 19.834087 42.699507 16.781265 36.154163 4.747222 -10.102253 21.775707 25.570076 0.321404 1.993533 -1.343147 -0.032980 0.254670 0.063660 -0.039850 
0.000330 15.498470 -0.868730 -3.392928 -4.025379 -5.033265 -15.363469 10.401178 5.383560 21.577451 -4.939214 -28.954318 -34.414874 34.314571 50.867536 2.140517 14.366662 -0.200186 0.321860 0.318760 0.104580 18.409805 -8.268360 3.977936 -19.088523 9.068006 -26.142292 36.478982 -31.069980 50.855840 -2.331848 -11.925642 0.342816 0.176400 0.105090 0.140310 -3.586176 -1.614170 -10.113733 9.668006 -0.475057 19.807472 -3.301849 2.817915 17.286584 2.926605 -4.486213 -21.783844 -11.215747 4.121502 41.917611 1.250590 -0.157260 -9.544260 -24.305719 -36.783465 10.837603 -34.759803 -4.676161 -9.042676 -29.159948 -24.873477 1.085178 -3.391909 3.120652 0.345180 -0.029600 0.138850 0.112980 19.800621 42.900524 16.896203 36.212417 4.604173 -10.167508 21.595881 25.697962 0.314593 2.004488 -1.345500 -0.017940 0.248710 0.055000 -0.029720 
-0.001980 15.507040 -0.869710 -3.482803 -4.014354 -5.050627 -15.366472 10.423588 5.387684 21.625159 -4.933370 -28.922546 -34.323795 34.217281 50.851990 2.135022 14.342693 -0.204674 0.310740 0.314600 0.105380 18.403054 -8.276877 3.964080 -18.848091 9.069448 -25.945026 36.449395 -30.905251 50.660957 -2.318411 -11.871264 0.349836 0.172810 0.092100 0.135300 -3.571641 -1.640167 -10.115245 9.720687 -0.478455 19.923275 -3.234049 2.801920 17.265288 2.972598 -4.464658 -21.896154 -11.245027 4.071413 42.085422 1.060820 -0.091740 -9.673930 -24.076629 -36.922197 10.914548 -35.026705 -4.783494 -9.053923 -28.887030 -24.951412 1.068025 -3.389393 3.111860 0.344470 -0.036740 0.146730 0.099920 19.487409 43.050825 16.941370 36.400326 4.614740 -10.251766 21.428551 25.902007 0.318204 2.012870 -1.335072 -0.016990 0.246150 0.059500 -0.031120 
